{"accessors":[{"bufferView":0,"componentType":5121,"count":6,"max":[3],"min":[0],"type":"SCALAR"},{"bufferView":1,"componentType":5126,"count":4,"max":[1.0,0.0,1.0],"min":[-1.0,0.0,-1.0],"type":"VEC3"},{"bufferView":2,"componentType":5126,"count":4,"max":[0.0,1.0,-0.0],"min":[0.0,1.0,-0.0],"type":"VEC3"},{"bufferView":3,"componentType":5126,"count":4,"max":[1.0,1.0],"min":[0.0,0.0],"type":"VEC2"},{"bufferView":4,"componentType":5121,"count":6,"max":[3],"min":[0],"type":"SCALAR"},{"bufferView":5,"componentType":5126,"count":4,"max":[1.0,0.0,1.0],"min":[-1.0,0.0,-1.0],"type":"VEC3"},{"bufferView":6,"componentType":5126,"count":4,"max":[0.0,1.0,-0.0],"min":[0.0,1.0,-0.0],"type":"VEC3"},{"bufferView":7,"componentType":5126,"count":4,"max":[1.0,1.0],"min":[0.0,0.0],"type":"VEC2"},{"bufferView":8,"componentType":5121,"count":6,"max":[3],"min":[0],"type":"SCALAR"},{"bufferView":9,"componentType":5126,"count":4,"max":[1.0,0.0,1.0],"min":[-1.0,0.0,-1.0],"type":"VEC3"},{"bufferView":10,"componentType":5126,"count":4,"max":[0.0,1.0,-0.0],"min":[0.0,1.0,-0.0],"type":"VEC3"},{"bufferView":11,"componentType":5126,"count":4,"max":[1.0,1.0],"min":[0.0,0.0],"type":"VEC2"},{"bufferView":12,"componentType":5121,"count":6,"max":[3],"min":[0],"type":"SCALAR"},{"bufferView":13,"componentType":5126,"count":4,"max":[1.0,0.0,1.0],"min":[-1.0,0.0,-1.0],"type":"VEC3"},{"bufferView":14,"componentType":5126,"count":4,"max":[0.0,1.0,-0.0],"min":[0.0,1.0,-0.0],"type":"VEC3"},{"bufferView":15,"componentType":5126,"count":4,"max":[1.0,1.0],"min":[0.0,0.0],"type":"VEC2"},{"bufferView":16,"componentType":5123,"count":2880,"max":[1983],"min":[0],"type":"SCALAR"},{"bufferView":17,"componentType":5126,"count":1984,"max":[1.000000238418579,1.0,1.0000003576278687],"min":[-0.9999998211860657,-1.0,-1.0],"type":"VEC3"},{"bufferView":18,"componentType":5126,"count":1984,"max":[0.9904382228851318,0.99513840675354,0.9904384016990662],"min":[-0.9904382228851318,-0.99513840675354,-0.9904382824897766],"type":"VEC3"},{"bufferView":19,"componentType":5126,"count":1984,"max":[1.000000238418579,1.0],"min":[0.0,0.0],"type":"VEC2"}],"asset":{"generator":"Soft8Soft Verge3D for Blender add-on","version":"2.0"},"bufferViews":[{"buffer":0,"byteLength":6,"byteOffset":0,"target":34963},{"buffer":0,"byteLength":48,"byteOffset":8,"target":34962},{"buffer":0,"byteLength":48,"byteOffset":56,"target":34962},{"buffer":0,"byteLength":32,"byteOffset":104,"target":34962},{"buffer":0,"byteLength":6,"byteOffset":136,"target":34963},{"buffer":0,"byteLength":48,"byteOffset":144,"target":34962},{"buffer":0,"byteLength":48,"byteOffset":192,"target":34962},{"buffer":0,"byteLength":32,"byteOffset":240,"target":34962},{"buffer":0,"byteLength":6,"byteOffset":272,"target":34963},{"buffer":0,"byteLength":48,"byteOffset":280,"target":34962},{"buffer":0,"byteLength":48,"byteOffset":328,"target":34962},{"buffer":0,"byteLength":32,"byteOffset":376,"target":34962},{"buffer":0,"byteLength":6,"byteOffset":408,"target":34963},{"buffer":0,"byteLength":48,"byteOffset":416,"target":34962},{"buffer":0,"byteLength":48,"byteOffset":464,"target":34962},{"buffer":0,"byteLength":32,"byteOffset":512,"target":34962},{"buffer":0,"byteLength":5760,"byteOffset":544,"target":34963},{"buffer":0,"byteLength":23808,"byteOffset":6304,"target":34962},{"buffer":0,"byteLength":23808,"byteOffset":30112,"target":34962},{"buffer":0,"byteLength":15872,"byteOffset":53920,"target":34962}],"buffers":[{"byteLength":69792,"uri":"scene2.bin"}],"cameras":[{"extensions":{"S8S_v3d_camera_data":{"controls":"ORBIT","enablePan":false,"moveSpeed":1.0,"orbitMaxDistance":1.0,"orbitMaxPolarAngle":3.1415927410125732,"orbitMaxZoom":100.0,"orbitMinDistance":1.0,"orbitMinPolarAngle":0.9599310755729675,"orbitMinZoom":0.009999999776482582,"orbitTarget":[0.0,0.0,-0.0],"rotateSpeed":1.0,"viewportFitInitialAspect":1.7777777777777777,"viewportFitType":"AUTO"}},"name":"Camera","perspective":{"aspectRatio":1.7777777777777777,"yfov":1.1874993173003463,"zfar":100.0,"znear":0.10000000149011612},"type":"perspective"}],"extensionsUsed":["S8S_v3d_texture_data","S8S_v3d_material_data","S8S_v3d_camera_data","S8S_v3d_mesh_data","S8S_v3d_node_data","S8S_v3d_scene_data"],"images":[{"uri":"20210202_185950_715 (1).jpg"},{"uri":"arrow2.png"}],"materials":[{"extensions":{"S8S_v3d_material_data":{"nodeGraph":{"edges":[{"fromNode":1,"fromOutput":0,"toInput":0,"toNode":0}],"nodes":[{"inputs":[[0,0,0,0],[0,0,0,0],[0.0,0.0,0.0]],"is_active_output":true,"name":"Material Output","outputs":[],"type":"OUTPUT_MATERIAL_BL"},{"inputs":[[0.0,0.0,0.0]],"is_active_output":false,"name":"Environment Texture","outputs":[[0.0,0.0,0.0,0.0]],"projection":"EQUIRECTANGULAR","texture":0,"type":"TEX_ENVIRONMENT_BL"}]},"useCastShadows":true}},"name":"Material.001"},{"alphaMode":"BLEND","doubleSided":true,"extensions":{"S8S_v3d_material_data":{"blendMode":{"blendEquation":32774,"dstRGB":771,"srcRGB":1},"depthWrite":false,"nodeGraph":{"edges":[{"fromNode":1,"fromOutput":0,"toInput":1,"toNode":4},{"fromNode":2,"fromOutput":0,"toInput":0,"toNode":3},{"fromNode":2,"fromOutput":1,"toInput":0,"toNode":4},{"fromNode":3,"fromOutput":0,"toInput":2,"toNode":4},{"fromNode":4,"fromOutput":0,"toInput":0,"toNode":0}],"nodes":[{"inputs":[[0,0,0,0],[0,0,0,0],[0.0,0.0,0.0]],"is_active_output":true,"name":"Material Output","outputs":[],"type":"OUTPUT_MATERIAL_BL"},{"inputs":[[1.0,1.0,1.0,1.0]],"is_active_output":false,"name":"Transparent BSDF","outputs":[[0,0,0,0]],"type":"BSDF_TRANSPARENT_BL"},{"inputs":[[0.0,0.0,0.0]],"is_active_output":false,"name":"Image Texture","outputs":[[0.0,0.0,0.0,0.0],0.0],"projection":"FLAT","projectionBlend":0.0,"texture":1,"type":"TEX_IMAGE_BL"},{"inputs":[[1.0,1.0,1.0,1.0],1.0],"is_active_output":false,"name":"Emission","outputs":[[0,0,0,0]],"type":"EMISSION_BL"},{"inputs":[0.5,[0,0,0,0],[0,0,0,0]],"is_active_output":false,"name":"Mix Shader","outputs":[[0,0,0,0]],"type":"MIX_SHADER_BL"}]},"renderSide":"DOUBLE","useCastShadows":true}},"name":"Material.002"},{"extensions":{"S8S_v3d_material_data":{"nodeGraph":{"edges":[{"fromNode":1,"fromOutput":0,"toInput":0,"toNode":0}],"nodes":[{"inputs":[[0,0,0,0],[0,0,0,0]],"is_active_output":true,"name":"World Output","outputs":[],"type":"OUTPUT_WORLD_BL"},{"inputs":[[0.05087608844041824,0.05087608844041824,0.05087608844041824,1.0],1.0],"is_active_output":false,"name":"Background","outputs":[[0,0,0,0]],"type":"BACKGROUND_BL"}]},"useCastShadows":true}},"name":"Verge3D_Environment_World"}],"meshes":[{"extensions":{"S8S_v3d_mesh_data":{"colorLayers":{},"uvLayers":{"UVMap":"TEXCOORD_0"}}},"name":"Plane","primitives":[{"attributes":{"NORMAL":2,"POSITION":1,"TEXCOORD_0":3},"indices":0,"material":1,"mode":4}]},{"extensions":{"S8S_v3d_mesh_data":{"colorLayers":{},"uvLayers":{"UVMap":"TEXCOORD_0"}}},"name":"Plane.001","primitives":[{"attributes":{"NORMAL":6,"POSITION":5,"TEXCOORD_0":7},"indices":4,"material":1,"mode":4}]},{"extensions":{"S8S_v3d_mesh_data":{"colorLayers":{},"uvLayers":{"UVMap":"TEXCOORD_0"}}},"name":"Plane.002","primitives":[{"attributes":{"NORMAL":10,"POSITION":9,"TEXCOORD_0":11},"indices":8,"material":1,"mode":4}]},{"extensions":{"S8S_v3d_mesh_data":{"colorLayers":{},"uvLayers":{"UVMap":"TEXCOORD_0"}}},"name":"Plane.003","primitives":[{"attributes":{"NORMAL":14,"POSITION":13,"TEXCOORD_0":15},"indices":12,"material":1,"mode":4}]},{"extensions":{"S8S_v3d_mesh_data":{"colorLayers":{},"uvLayers":{"UVMap":"TEXCOORD_0"}}},"name":"Sphere.002","primitives":[{"attributes":{"NORMAL":18,"POSITION":17,"TEXCOORD_0":19},"indices":16,"material":0,"mode":4}]}],"nodes":[{"extensions":{"S8S_v3d_node_data":{"frustumCulling":true,"groupNames":["Collection"],"hidden":false,"renderOrder":0,"useShadows":true}},"mesh":3,"name":"Plane.003","rotation":[-6.101165126892738e-05,0.9999098777770996,-0.01251147035509348,-0.004876018036156893],"scale":[0.9999973177909851,0.971419632434845,0.9714224934577942],"translation":[-6.352176666259766,-8.354063034057617,4.976036071777344]},{"extensions":{"S8S_v3d_node_data":{"frustumCulling":true,"groupNames":["Collection"],"hidden":false,"renderOrder":0,"useShadows":true}},"mesh":2,"name":"Plane.001","rotation":[-6.101165126892738e-05,0.9999098777770996,-0.01251147035509348,-0.004876018036156893],"scale":[0.9999973177909851,0.971419632434845,0.9714224934577942],"translation":[-10.699438095092773,-5.504593372344971,3.9141807556152344]},{"camera":0,"extensions":{"S8S_v3d_node_data":{"frustumCulling":true,"groupNames":["Collection"],"hidden":false,"renderOrder":0}},"name":"Camera","rotation":[8.429369557916289e-08,0.0,0.0,1.0],"scale":[1.0,1.0,1.0],"translation":[0.009999999776482582,0.0,0.0]},{"extensions":{"S8S_v3d_node_data":{"frustumCulling":true,"groupNames":["Collection"],"hidden":false,"renderOrder":0,"useShadows":true}},"mesh":4,"name":"Sphere.002","scale":[15.0,15.0,15.0]},{"extensions":{"S8S_v3d_node_data":{"frustumCulling":true,"groupNames":["Collection"],"hidden":false,"renderOrder":0,"useShadows":true}},"mesh":0,"name":"Plane","rotation":[-6.1011643992969766e-05,0.9999098777770996,-0.01251146849244833,-0.0048760175704956055],"translation":[-6.629305362701416,-8.574134826660156,-8.87869644165039]},{"extensions":{"S8S_v3d_node_data":{"frustumCulling":true,"groupNames":["Collection"],"hidden":false,"renderOrder":0,"useShadows":true}},"mesh":1,"name":"Plane.002","rotation":[0.03097676672041416,-0.9950909614562988,0.040671370923519135,0.08473697304725647],"scale":[1.000051498413086,0.9717456102371216,1.0157835483551025],"translation":[-5.096381187438965,-4.615256309509277,11.825706481933594]}],"samplers":[{}],"scene":0,"scenes":[{"extensions":{"S8S_v3d_scene_data":{"aaMethod":"AUTO","iblEnvironmentMode":"PMREM","physicallyCorrectLights":true,"pmremMaxTileSize":512,"shadowMap":{"esmDistanceScale":1.0,"renderReverseSided":false,"renderSingleSided":true,"type":"PCFPOISSON"},"toneMapping":{"type":"filmicBlender"},"worldMaterial":2}},"extras":{"animFrameRate":24,"coordSystem":"Z_UP_RIGHT"},"name":"Scene","nodes":[2,4,1,3,5,0]}],"textures":[{"extensions":{"S8S_v3d_texture_data":{"colorSpace":"srgb"}},"name":"20210202_185950_715 (1).jpg.001","sampler":0,"source":0},{"extensions":{"S8S_v3d_texture_data":{"colorSpace":"srgb"}},"name":"arrow2.png.001","sampler":0,"source":1}]}
