{"accessors":[{"bufferView":0,"componentType":5121,"count":6,"max":[3],"min":[0],"type":"SCALAR"},{"bufferView":1,"componentType":5126,"count":4,"max":[1.0,0.0,1.0],"min":[-1.0,0.0,-1.0],"type":"VEC3"},{"bufferView":2,"componentType":5126,"count":4,"max":[0.0,1.0,-0.0],"min":[0.0,1.0,-0.0],"type":"VEC3"},{"bufferView":3,"componentType":5126,"count":4,"max":[1.0,1.0],"min":[0.0,0.0],"type":"VEC2"},{"bufferView":4,"componentType":5121,"count":6,"max":[3],"min":[0],"type":"SCALAR"},{"bufferView":5,"componentType":5126,"count":4,"max":[1.0,0.0,1.0],"min":[-1.0,0.0,-1.0],"type":"VEC3"},{"bufferView":6,"componentType":5126,"count":4,"max":[0.0,1.0,-0.0],"min":[0.0,1.0,-0.0],"type":"VEC3"},{"bufferView":7,"componentType":5126,"count":4,"max":[1.0,1.0],"min":[0.0,0.0],"type":"VEC2"},{"bufferView":8,"componentType":5121,"count":6,"max":[3],"min":[0],"type":"SCALAR"},{"bufferView":9,"componentType":5126,"count":4,"max":[1.0,0.0,1.0],"min":[-1.0,0.0,-1.0],"type":"VEC3"},{"bufferView":10,"componentType":5126,"count":4,"max":[0.0,1.0,-0.0],"min":[0.0,1.0,-0.0],"type":"VEC3"},{"bufferView":11,"componentType":5126,"count":4,"max":[1.0,1.0],"min":[0.0,0.0],"type":"VEC2"},{"bufferView":12,"componentType":5123,"count":2880,"max":[558],"min":[0],"type":"SCALAR"},{"bufferView":13,"componentType":5126,"count":559,"max":[1.000000238418579,1.0,1.0000003576278687],"min":[-0.9999998211860657,-1.0,-1.0],"type":"VEC3"},{"bufferView":14,"componentType":5126,"count":559,"max":[0.9984554052352905,0.9999911189079285,0.9968613982200623],"min":[-0.9991369247436523,-1.0000001192092896,-0.9915123581886292],"type":"VEC3"},{"bufferView":15,"componentType":5126,"count":559,"max":[1.000000238418579,1.0],"min":[0.0,0.0],"type":"VEC2"},{"bufferView":16,"componentType":5123,"count":15264,"max":[2832],"min":[0],"type":"SCALAR"},{"bufferView":17,"componentType":5126,"count":2833,"max":[2.2308948040008545,3.13181734085083,0.3727041184902191],"min":[-2.230875253677368,-1.3283991813659668,-0.3694663941860199],"type":"VEC3"},{"bufferView":18,"componentType":5126,"count":2833,"max":[1.0,1.0,1.0],"min":[-1.0,-1.0,-1.0],"type":"VEC3"},{"bufferView":19,"componentType":5126,"count":2833,"max":[1.000000238418579,1.0],"min":[0.0,0.0],"type":"VEC2"},{"bufferView":20,"componentType":5123,"count":4320,"max":[783],"min":[0],"type":"SCALAR"},{"bufferView":21,"componentType":5126,"count":784,"max":[2.397454023361206,3.297132730484009,0.11407358944416046],"min":[-2.397454023361206,-1.496105432510376,-0.10291005671024323],"type":"VEC3"},{"bufferView":22,"componentType":5126,"count":784,"max":[0.999969482421875,0.9996337890625,0.9803460836410522],"min":[-0.999969482421875,-0.9996337890625,-0.965330958366394],"type":"VEC3"},{"bufferView":23,"componentType":5126,"count":784,"max":[1.0,0.6666666567325592],"min":[8.881784197001252e-16,0.3541666865348816],"type":"VEC2"},{"bufferView":24,"componentType":5121,"count":78,"max":[51],"min":[0],"type":"SCALAR"},{"bufferView":25,"componentType":5126,"count":52,"max":[2.5431108474731445,1.4124140739440918,0.05167142301797867],"min":[-2.5431108474731445,-1.4124140739440918,-0.04607751965522766],"type":"VEC3"},{"bufferView":26,"componentType":5126,"count":52,"max":[1.0,1.0,1.0],"min":[-1.0,-1.0,-1.0],"type":"VEC3"},{"bufferView":27,"componentType":5126,"count":52,"max":[0.875,0.75],"min":[0.125,0.0],"type":"VEC2"},{"bufferView":28,"componentType":5121,"count":6,"max":[3],"min":[0],"type":"SCALAR"},{"bufferView":29,"componentType":5126,"count":4,"max":[2.4064033031463623,1.336488127708435,0.05167142301797867],"min":[-2.4064033031463623,-1.336488127708435,0.051671214401721954],"type":"VEC3"},{"bufferView":30,"componentType":5126,"count":4,"max":[-4.334607339728791e-08,0.0,1.0],"min":[-4.334607339728791e-08,0.0,1.0],"type":"VEC3"},{"bufferView":31,"componentType":5126,"count":4,"max":[1.0002760887145996,1.0002761483192444],"min":[-0.0002760887145996094,-0.0002759695053100586],"type":"VEC2"},{"bufferView":32,"componentType":5126,"count":51,"max":[2.0833333333333335],"min":[0.0],"type":"SCALAR"},{"bufferView":33,"componentType":5126,"count":51,"max":[0.0,0.9998466968536377,-0.0,0.9999944567680359],"min":[0.0,0.0033231345005333424,-0.0,-0.9753997325897217],"type":"VEC4"}],"animations":[{"channels":[{"sampler":0,"target":{"node":5,"path":"rotation"}}],"extensions":{"S8S_v3d_animation_data":{"auto":true,"loop":"PING_PONG","offset":0.0,"repeatCount":1.0,"repeatInfinite":true}},"name":"bitvazaberlin4","samplers":[{"input":32,"interpolation":"LINEAR","output":33}]}],"asset":{"generator":"Soft8Soft Verge3D for Blender add-on","version":"2.0"},"bufferViews":[{"buffer":0,"byteLength":6,"byteOffset":0,"target":34963},{"buffer":0,"byteLength":48,"byteOffset":8,"target":34962},{"buffer":0,"byteLength":48,"byteOffset":56,"target":34962},{"buffer":0,"byteLength":32,"byteOffset":104,"target":34962},{"buffer":0,"byteLength":6,"byteOffset":136,"target":34963},{"buffer":0,"byteLength":48,"byteOffset":144,"target":34962},{"buffer":0,"byteLength":48,"byteOffset":192,"target":34962},{"buffer":0,"byteLength":32,"byteOffset":240,"target":34962},{"buffer":0,"byteLength":6,"byteOffset":272,"target":34963},{"buffer":0,"byteLength":48,"byteOffset":280,"target":34962},{"buffer":0,"byteLength":48,"byteOffset":328,"target":34962},{"buffer":0,"byteLength":32,"byteOffset":376,"target":34962},{"buffer":0,"byteLength":5760,"byteOffset":408,"target":34963},{"buffer":0,"byteLength":6708,"byteOffset":6168,"target":34962},{"buffer":0,"byteLength":6708,"byteOffset":12876,"target":34962},{"buffer":0,"byteLength":4472,"byteOffset":19584,"target":34962},{"buffer":0,"byteLength":30528,"byteOffset":24056,"target":34963},{"buffer":0,"byteLength":33996,"byteOffset":54584,"target":34962},{"buffer":0,"byteLength":33996,"byteOffset":88580,"target":34962},{"buffer":0,"byteLength":22664,"byteOffset":122576,"target":34962},{"buffer":0,"byteLength":8640,"byteOffset":145240,"target":34963},{"buffer":0,"byteLength":9408,"byteOffset":153880,"target":34962},{"buffer":0,"byteLength":9408,"byteOffset":163288,"target":34962},{"buffer":0,"byteLength":6272,"byteOffset":172696,"target":34962},{"buffer":0,"byteLength":78,"byteOffset":178968,"target":34963},{"buffer":0,"byteLength":624,"byteOffset":179048,"target":34962},{"buffer":0,"byteLength":624,"byteOffset":179672,"target":34962},{"buffer":0,"byteLength":416,"byteOffset":180296,"target":34962},{"buffer":0,"byteLength":6,"byteOffset":180712,"target":34963},{"buffer":0,"byteLength":48,"byteOffset":180720,"target":34962},{"buffer":0,"byteLength":48,"byteOffset":180768,"target":34962},{"buffer":0,"byteLength":32,"byteOffset":180816,"target":34962},{"buffer":0,"byteLength":204,"byteOffset":180848},{"buffer":0,"byteLength":816,"byteOffset":181052}],"buffers":[{"byteLength":181868,"uri":"scene4.bin"}],"cameras":[{"extensions":{"S8S_v3d_camera_data":{"controls":"ORBIT","enablePan":false,"moveSpeed":1.0,"orbitMaxDistance":0.10000000149011612,"orbitMaxPolarAngle":2.274513006210327,"orbitMaxZoom":100.0,"orbitMinDistance":0.0,"orbitMinPolarAngle":0.7000515460968018,"orbitMinZoom":0.009999999776482582,"orbitTarget":[0.0,0.0,-0.0],"rotateSpeed":1.0,"viewportFitInitialAspect":1.7777777910232544,"viewportFitType":"VERTICAL"}},"name":"Camera.001","perspective":{"aspectRatio":1.7777777910232544,"yfov":0.8985201716423035,"zfar":100.0,"znear":0.10000000149011612},"type":"perspective"}],"extensions":{"S8S_v3d_data":{"lights":[{"color":[1.0,1.0,1.0],"decay":2,"distance":31.622776955095866,"intensity":1000.0,"name":"Light","profile":"blender","shadow":{"bias":-0.0018,"cameraFar":31.622776955095866,"cameraFov":0,"cameraNear":0.05000000074505806,"enabled":true,"expBias":2.5,"mapSize":512,"radius":1.0,"slopeScaledBias":2.5},"type":"point"}]}},"extensionsUsed":["S8S_v3d_texture_data","S8S_v3d_material_data","S8S_v3d_camera_data","S8S_v3d_data","S8S_v3d_mesh_data","S8S_v3d_node_data","S8S_v3d_animation_data","S8S_v3d_scene_data"],"images":[{"uri":"20210202_185634_651.jpg"},{"uri":"arrow2.png"},{"uri":"v3d_exported_image_screen"}],"materials":[{"extensions":{"S8S_v3d_material_data":{"nodeGraph":{"edges":[{"fromNode":1,"fromOutput":0,"toInput":0,"toNode":0}],"nodes":[{"inputs":[[0,0,0,0],[0,0,0,0],[0.0,0.0,0.0]],"is_active_output":true,"name":"Material Output","outputs":[],"type":"OUTPUT_MATERIAL_BL"},{"inputs":[[0.0,0.0,0.0]],"is_active_output":false,"name":"Environment Texture","outputs":[[0.0,0.0,0.0,0.0]],"projection":"EQUIRECTANGULAR","texture":0,"type":"TEX_ENVIRONMENT_BL"}]},"useCastShadows":true}},"name":"Material.001"},{"alphaMode":"BLEND","doubleSided":true,"extensions":{"S8S_v3d_material_data":{"blendMode":{"blendEquation":32774,"dstRGB":771,"srcRGB":1},"depthWrite":false,"nodeGraph":{"edges":[{"fromNode":2,"fromOutput":0,"toInput":0,"toNode":3},{"fromNode":3,"fromOutput":0,"toInput":2,"toNode":4},{"fromNode":4,"fromOutput":0,"toInput":0,"toNode":0},{"fromNode":1,"fromOutput":0,"toInput":1,"toNode":4},{"fromNode":2,"fromOutput":1,"toInput":0,"toNode":4}],"nodes":[{"inputs":[[0,0,0,0],[0,0,0,0],[0.0,0.0,0.0]],"is_active_output":true,"name":"Material Output","outputs":[],"type":"OUTPUT_MATERIAL_BL"},{"inputs":[[1.0,1.0,1.0,1.0]],"is_active_output":false,"name":"Transparent BSDF","outputs":[[0,0,0,0]],"type":"BSDF_TRANSPARENT_BL"},{"inputs":[[0.0,0.0,0.0]],"is_active_output":false,"name":"Image Texture","outputs":[[0.0,0.0,0.0,0.0],0.0],"projection":"FLAT","projectionBlend":0.0,"texture":1,"type":"TEX_IMAGE_BL"},{"inputs":[[1.0,1.0,1.0,1.0],0.800000011920929],"is_active_output":false,"name":"Emission","outputs":[[0,0,0,0]],"type":"EMISSION_BL"},{"inputs":[0.5,[0,0,0,0],[0,0,0,0]],"is_active_output":false,"name":"Mix Shader","outputs":[[0,0,0,0]],"type":"MIX_SHADER_BL"}]},"renderSide":"DOUBLE","useCastShadows":true}},"name":"Material.002"},{"extensions":{"S8S_v3d_material_data":{"nodeGraph":{"edges":[{"fromNode":1,"fromOutput":0,"toInput":0,"toNode":0}],"nodes":[{"inputs":[[0,0,0,0],[0,0,0,0],[0.0,0.0,0.0]],"is_active_output":true,"name":"Material Output","outputs":[],"type":"OUTPUT_MATERIAL_BL"},{"inputs":[[1.0,0.7909642457962036,0.9083530902862549,1.0],1.0],"is_active_output":false,"name":"Emission","outputs":[[0,0,0,0]],"type":"EMISSION_BL"}]},"useCastShadows":true}},"name":"info_1"},{"extensions":{"S8S_v3d_material_data":{"nodeGraph":{"edges":[{"fromNode":1,"fromOutput":0,"toInput":0,"toNode":0}],"nodes":[{"inputs":[[0,0,0,0],[0,0,0,0],[0.0,0.0,0.0]],"is_active_output":true,"name":"Material Output","outputs":[],"type":"OUTPUT_MATERIAL_BL"},{"inputs":[[0.005291352979838848,0.05027661845088005,0.272140771150589,1.0],1.0],"is_active_output":false,"name":"Emission","outputs":[[0,0,0,0]],"type":"EMISSION_BL"}]},"useCastShadows":true}},"name":"info_2"},{"extensions":{"S8S_v3d_material_data":{"nodeGraph":{"edges":[{"fromNode":0,"fromOutput":0,"toInput":0,"toNode":1}],"nodes":[{"inputs":[[0.0,0.0,0.0,1.0],0.0,[1.0,0.20000000298023224,0.10000000149011612],[0.800000011920929,0.800000011920929,0.800000011920929,1.0],0.0,0.5,0.0,0.5,0.0,0.0,0.0,0.5,0.0,0.029999999329447746,1.4500000476837158,0.0,0.0,[0.0,0.0,0.0,1.0],1.0,[0.0,0.0,0.0],[0.0,0.0,0.0],[0.0,0.0,0.0]],"is_active_output":false,"name":"Principled BSDF","outputs":[[0,0,0,0]],"type":"BSDF_PRINCIPLED_BL"},{"inputs":[[0,0,0,0],[0,0,0,0],[0.0,0.0,0.0]],"is_active_output":true,"name":"Material Output","outputs":[],"type":"OUTPUT_MATERIAL_BL"}]},"useCastShadows":true}},"name":"tv_black"},{"extensions":{"S8S_v3d_material_data":{"nodeGraph":{"edges":[{"fromNode":2,"fromOutput":0,"toInput":0,"toNode":1},{"fromNode":1,"fromOutput":0,"toInput":0,"toNode":0}],"nodes":[{"inputs":[[0,0,0,0],[0,0,0,0],[0.0,0.0,0.0]],"is_active_output":true,"name":"Material Output","outputs":[],"type":"OUTPUT_MATERIAL_BL"},{"inputs":[[1.0,1.0,1.0,1.0],1.0],"is_active_output":false,"name":"Emission","outputs":[[0,0,0,0]],"type":"EMISSION_BL"},{"inputs":[[0.0,0.0,0.0]],"is_active_output":false,"name":"Image Texture","outputs":[[0.0,0.0,0.0,0.0],0.0],"projection":"FLAT","projectionBlend":0.0,"texture":2,"type":"TEX_IMAGE_BL"}]},"useCastShadows":true}},"name":"tv_video"},{"extensions":{"S8S_v3d_material_data":{"nodeGraph":{"edges":[{"fromNode":1,"fromOutput":0,"toInput":0,"toNode":0}],"nodes":[{"inputs":[[0,0,0,0],[0,0,0,0]],"is_active_output":true,"name":"World Output","outputs":[],"type":"OUTPUT_WORLD_BL"},{"inputs":[[0.05087608844041824,0.05087608844041824,0.05087608844041824,1.0],1.0],"is_active_output":false,"name":"Background","outputs":[[0,0,0,0]],"type":"BACKGROUND_BL"}]},"useCastShadows":true}},"name":"Verge3D_Environment_World"}],"meshes":[{"extensions":{"S8S_v3d_mesh_data":{"colorLayers":{},"uvLayers":{"UVMap":"TEXCOORD_0"}}},"name":"Plane","primitives":[{"attributes":{"NORMAL":2,"POSITION":1,"TEXCOORD_0":3},"indices":0,"material":1,"mode":4}]},{"extensions":{"S8S_v3d_mesh_data":{"colorLayers":{},"uvLayers":{"UVMap":"TEXCOORD_0"}}},"name":"Plane.002","primitives":[{"attributes":{"NORMAL":6,"POSITION":5,"TEXCOORD_0":7},"indices":4,"material":1,"mode":4}]},{"extensions":{"S8S_v3d_mesh_data":{"colorLayers":{},"uvLayers":{"UVMap":"TEXCOORD_0"}}},"name":"Plane.003","primitives":[{"attributes":{"NORMAL":10,"POSITION":9,"TEXCOORD_0":11},"indices":8,"material":1,"mode":4}]},{"extensions":{"S8S_v3d_mesh_data":{"colorLayers":{},"uvLayers":{"UVMap":"TEXCOORD_0"}}},"name":"Sphere","primitives":[{"attributes":{"NORMAL":14,"POSITION":13,"TEXCOORD_0":15},"indices":12,"material":0,"mode":4}]},{"extensions":{"S8S_v3d_mesh_data":{"colorLayers":{},"uvLayers":{"UVMap":"TEXCOORD_0"}}},"name":"Sphere","primitives":[{"attributes":{"NORMAL":18,"POSITION":17,"TEXCOORD_0":19},"indices":16,"material":2,"mode":4},{"attributes":{"NORMAL":22,"POSITION":21,"TEXCOORD_0":23},"indices":20,"material":3,"mode":4}]},{"extensions":{"S8S_v3d_mesh_data":{"colorLayers":{},"uvLayers":{"UVMap":"TEXCOORD_0"}}},"name":"Cube.001","primitives":[{"attributes":{"NORMAL":26,"POSITION":25,"TEXCOORD_0":27},"indices":24,"material":4,"mode":4},{"attributes":{"NORMAL":30,"POSITION":29,"TEXCOORD_0":31},"indices":28,"material":5,"mode":4}]}],"nodes":[{"extensions":{"S8S_v3d_node_data":{"frustumCulling":true,"groupNames":["Collection"],"hidden":false,"renderOrder":0,"useShadows":true}},"mesh":1,"name":"scene5","rotation":[0.028805717825889587,-0.08828265964984894,-0.9940512180328369,0.05690811574459076],"scale":[-0.8904417157173157,-0.0684121623635292,-0.8239898681640625],"translation":[5.202773094177246,-6.58542537689209,7.306399822235107]},{"extensions":{"S8S_v3d_node_data":{"frustumCulling":true,"groupNames":[],"hidden":false,"renderOrder":0}},"name":"Light.001","rotation":[-0.28416627645492554,0.7269423604011536,0.3420339524745941,0.5232754349708557],"scale":[1.0000001192092896,0.9999998211860657,1.0],"translation":[4.076245307922363,5.903861999511719,-1.0054539442062378]},{"extensions":{"S8S_v3d_node_data":{"frustumCulling":true,"groupNames":["Collection"],"hidden":true,"renderOrder":0,"useShadows":true}},"mesh":5,"name":"tv","rotation":[0.0,0.7071068286895752,-0.0,0.7071067690849304],"translation":[-3.277144193649292,0.0,-0.04382706806063652]},{"children":[2],"name":"v3d_Proxy_Node_0_tv","rotation":[-5.42484883681027e-08,-0.70710688829422,5.4248474157247983e-08,0.7071066498756409],"scale":[1.0,1.0,1.0],"translation":[2.8212998159915514e-08,-7.793993006544042e-09,-0.10000000149011612]},{"extensions":{"S8S_v3d_node_data":{"frustumCulling":true,"groupNames":[],"hidden":false,"renderOrder":0,"useShadows":true}},"mesh":3,"name":"Sphere","scale":[15.0,15.0,15.0]},{"extensions":{"S8S_v3d_node_data":{"frustumCulling":true,"groupNames":["Collection"],"hidden":false,"renderOrder":0,"useShadows":true}},"mesh":4,"name":"bitvazaberlin4","scale":[0.31300467252731323,0.31300467252731323,0.31300467252731323],"translation":[-9.308146476745605,-3.8099827766418457,0.06186547502875328]},{"extensions":{"S8S_v3d_node_data":{"frustumCulling":true,"groupNames":["Collection"],"hidden":false,"renderOrder":0,"useShadows":true}},"mesh":2,"name":"scene6","rotation":[-0.06780016422271729,-0.7451513409614563,0.0804794505238533,0.6585406064987183],"scale":[0.8416386842727661,0.8580150008201599,0.8312416076660156],"translation":[3.0649023056030273,-2.863554000854492,11.396943092346191]},{"extensions":{"S8S_v3d_node_data":{"frustumCulling":true,"groupNames":["Collection"],"hidden":false,"renderOrder":0,"useShadows":true}},"mesh":0,"name":"scene3","rotation":[0.0014563772128894925,-0.9981170296669006,0.060397107154130936,0.01060741301625967],"scale":[0.699181079864502,0.8830631375312805,0.9978612065315247],"translation":[0.2919999957084656,-4.097292900085449,8.65645694732666]},{"camera":0,"children":[3],"extensions":{"S8S_v3d_node_data":{"frustumCulling":true,"groupNames":[],"hidden":false,"renderOrder":0}},"name":"Camera","rotation":[5.424849192081638e-08,0.70710688829422,-5.4248474157247983e-08,0.7071066498756409],"scale":[1.0,0.9999999403953552,0.9999999403953552],"translation":[0.10000000149011612,0.0,0.0]},{"extensions":{"S8S_v3d_node_data":{"frustumCulling":true,"groupNames":["Collection"],"hidden":false,"light":0,"renderOrder":0}},"name":"Light","rotation":[-0.2841663062572479,0.7269423604011536,0.34203389286994934,0.5232754945755005],"scale":[0.9999999403953552,0.9999997615814209,0.9999998807907104],"translation":[4.076245307922363,5.903861999511719,-1.0054539442062378]}],"samplers":[{}],"scene":0,"scenes":[{"extensions":{"S8S_v3d_scene_data":{"aaMethod":"AUTO","iblEnvironmentMode":"PMREM","physicallyCorrectLights":true,"pmremMaxTileSize":512,"postprocessing":[{"edgeGlow":0.0,"edgeStrength":3.0,"edgeThickness":1.0,"hiddenEdgeColor":[0.10000000149011612,0.10000000149011612,0.10000000149011612,1.0],"pulsePeriod":1.0,"renderHiddenEdge":true,"type":"outline","visibleEdgeColor":[1.0,1.0,1.0,1.0]}],"shadowMap":{"esmDistanceScale":1.0,"renderReverseSided":false,"renderSingleSided":true,"type":"PCFPOISSON"},"toneMapping":{"type":"filmicBlender"},"worldMaterial":6}},"extras":{"animFrameRate":24,"coordSystem":"Z_UP_RIGHT"},"name":"Scene","nodes":[8,4,1,9,7,0,6,5]}],"textures":[{"extensions":{"S8S_v3d_texture_data":{"colorSpace":"srgb"}},"name":"20210202_185634_651.jpg","sampler":0,"source":0},{"extensions":{"S8S_v3d_texture_data":{"colorSpace":"srgb"}},"name":"arrow2.png","sampler":0,"source":1},{"extensions":{"S8S_v3d_texture_data":{"colorSpace":"srgb"}},"name":"screen","sampler":0,"source":2}]}
