{"accessors":[{"bufferView":0,"componentType":5121,"count":6,"max":[3],"min":[0],"type":"SCALAR"},{"bufferView":1,"componentType":5126,"count":4,"max":[24.197050094604492,14.518729209899902,9.56013298034668],"min":[10.391334533691406,14.518729209899902,-4.245585918426514],"type":"VEC3"},{"bufferView":2,"componentType":5126,"count":4,"max":[-0.0,1.0,-0.0],"min":[-0.0,1.0,-0.0],"type":"VEC3"},{"bufferView":3,"componentType":5126,"count":4,"max":[1.0,1.0],"min":[0.0,0.0],"type":"VEC2"},{"bufferView":4,"componentType":5123,"count":2880,"max":[1983],"min":[0],"type":"SCALAR"},{"bufferView":5,"componentType":5126,"count":1984,"max":[14.950016021728516,14.950016975402832,14.9500150680542],"min":[-14.950018882751465,-14.950017929077148,-14.950024604797363],"type":"VEC3"},{"bufferView":6,"componentType":5126,"count":1984,"max":[0.9904382824897766,0.99513840675354,0.9904384016990662],"min":[-0.9904382228851318,-0.9951384663581848,-0.9904383420944214],"type":"VEC3"},{"bufferView":7,"componentType":5126,"count":1984,"max":[1.000000238418579,1.0],"min":[0.0,0.0],"type":"VEC2"},{"bufferView":8,"componentType":5123,"count":15264,"max":[2832],"min":[0],"type":"SCALAR"},{"bufferView":9,"componentType":5126,"count":2833,"max":[2.2308948040008545,3.13181734085083,0.3727041184902191],"min":[-2.230875253677368,-1.3283991813659668,-0.3694663941860199],"type":"VEC3"},{"bufferView":10,"componentType":5126,"count":2833,"max":[1.0,1.0,1.0],"min":[-1.0,-1.0,-1.0],"type":"VEC3"},{"bufferView":11,"componentType":5126,"count":2833,"max":[1.000000238418579,1.0],"min":[0.0,0.0],"type":"VEC2"},{"bufferView":12,"componentType":5123,"count":4320,"max":[783],"min":[0],"type":"SCALAR"},{"bufferView":13,"componentType":5126,"count":784,"max":[2.397454023361206,3.297132730484009,0.11407358944416046],"min":[-2.397454023361206,-1.496105432510376,-0.10291005671024323],"type":"VEC3"},{"bufferView":14,"componentType":5126,"count":784,"max":[0.999969482421875,0.9996337890625,0.9803460836410522],"min":[-0.999969482421875,-0.9996337890625,-0.965330958366394],"type":"VEC3"},{"bufferView":15,"componentType":5126,"count":784,"max":[1.0,0.6666666567325592],"min":[8.881784197001252e-16,0.3541666865348816],"type":"VEC2"},{"bufferView":16,"componentType":5121,"count":78,"max":[51],"min":[0],"type":"SCALAR"},{"bufferView":17,"componentType":5126,"count":52,"max":[2.5431108474731445,1.4124140739440918,0.05167142301797867],"min":[-2.5431108474731445,-1.4124140739440918,-0.04607751965522766],"type":"VEC3"},{"bufferView":18,"componentType":5126,"count":52,"max":[1.0,1.0,1.0],"min":[-1.0,-1.0,-1.0],"type":"VEC3"},{"bufferView":19,"componentType":5126,"count":52,"max":[0.875,0.75],"min":[0.125,0.0],"type":"VEC2"},{"bufferView":20,"componentType":5121,"count":6,"max":[3],"min":[0],"type":"SCALAR"},{"bufferView":21,"componentType":5126,"count":4,"max":[2.4064033031463623,1.336488127708435,0.05167142301797867],"min":[-2.4064033031463623,-1.336488127708435,0.051671214401721954],"type":"VEC3"},{"bufferView":22,"componentType":5126,"count":4,"max":[-4.334607339728791e-08,0.0,1.0],"min":[-4.334607339728791e-08,0.0,1.0],"type":"VEC3"},{"bufferView":23,"componentType":5126,"count":4,"max":[1.0002760887145996,1.0002761483192444],"min":[-0.0002760887145996094,-0.0002759695053100586],"type":"VEC2"},{"bufferView":24,"componentType":5126,"count":52,"max":[2.125],"min":[0.0],"type":"SCALAR"},{"bufferView":25,"componentType":5126,"count":52,"max":[0.0,0.9998466968536377,-0.0,1.0],"min":[0.0,0.0,-0.0,-0.9753997325897217],"type":"VEC4"},{"bufferView":26,"componentType":5126,"count":52,"max":[2.125],"min":[0.0],"type":"SCALAR"},{"bufferView":27,"componentType":5126,"count":52,"max":[0.0,0.9998466968536377,-0.0,1.0],"min":[0.0,0.0,-0.0,-0.9753997325897217],"type":"VEC4"}],"animations":[{"channels":[{"sampler":0,"target":{"node":3,"path":"rotation"}}],"extensions":{"S8S_v3d_animation_data":{"auto":true,"loop":"PING_PONG","offset":0.0,"repeatCount":1.0,"repeatInfinite":true}},"name":"letchiki7","samplers":[{"input":24,"interpolation":"LINEAR","output":25}]},{"channels":[{"sampler":0,"target":{"node":5,"path":"rotation"}}],"extensions":{"S8S_v3d_animation_data":{"auto":true,"loop":"PING_PONG","offset":0.0,"repeatCount":1.0,"repeatInfinite":true}},"name":"vitrinarubega7","samplers":[{"input":26,"interpolation":"LINEAR","output":27}]}],"asset":{"generator":"Soft8Soft Verge3D for Blender add-on","version":"2.0"},"bufferViews":[{"buffer":0,"byteLength":6,"byteOffset":0,"target":34963},{"buffer":0,"byteLength":48,"byteOffset":8,"target":34962},{"buffer":0,"byteLength":48,"byteOffset":56,"target":34962},{"buffer":0,"byteLength":32,"byteOffset":104,"target":34962},{"buffer":0,"byteLength":5760,"byteOffset":136,"target":34963},{"buffer":0,"byteLength":23808,"byteOffset":5896,"target":34962},{"buffer":0,"byteLength":23808,"byteOffset":29704,"target":34962},{"buffer":0,"byteLength":15872,"byteOffset":53512,"target":34962},{"buffer":0,"byteLength":30528,"byteOffset":69384,"target":34963},{"buffer":0,"byteLength":33996,"byteOffset":99912,"target":34962},{"buffer":0,"byteLength":33996,"byteOffset":133908,"target":34962},{"buffer":0,"byteLength":22664,"byteOffset":167904,"target":34962},{"buffer":0,"byteLength":8640,"byteOffset":190568,"target":34963},{"buffer":0,"byteLength":9408,"byteOffset":199208,"target":34962},{"buffer":0,"byteLength":9408,"byteOffset":208616,"target":34962},{"buffer":0,"byteLength":6272,"byteOffset":218024,"target":34962},{"buffer":0,"byteLength":78,"byteOffset":224296,"target":34963},{"buffer":0,"byteLength":624,"byteOffset":224376,"target":34962},{"buffer":0,"byteLength":624,"byteOffset":225000,"target":34962},{"buffer":0,"byteLength":416,"byteOffset":225624,"target":34962},{"buffer":0,"byteLength":6,"byteOffset":226040,"target":34963},{"buffer":0,"byteLength":48,"byteOffset":226048,"target":34962},{"buffer":0,"byteLength":48,"byteOffset":226096,"target":34962},{"buffer":0,"byteLength":32,"byteOffset":226144,"target":34962},{"buffer":0,"byteLength":208,"byteOffset":226176},{"buffer":0,"byteLength":832,"byteOffset":226384},{"buffer":0,"byteLength":208,"byteOffset":227216},{"buffer":0,"byteLength":832,"byteOffset":227424}],"buffers":[{"byteLength":228256,"uri":"scene7.bin"}],"cameras":[{"extensions":{"S8S_v3d_camera_data":{"controls":"ORBIT","enablePan":false,"moveSpeed":1.0,"orbitMaxDistance":1.0,"orbitMaxPolarAngle":3.1415927410125732,"orbitMaxZoom":100.0,"orbitMinDistance":1.0,"orbitMinPolarAngle":0.9599310755729675,"orbitMinZoom":0.009999999776482582,"orbitTarget":[0.0,0.0,-0.0],"rotateSpeed":1.0,"viewportFitInitialAspect":1.7777777777777777,"viewportFitType":"AUTO"}},"name":"Camera.002","perspective":{"aspectRatio":1.7777777777777777,"yfov":0.937270173412135,"zfar":1000.0,"znear":0.10000000149011612},"type":"perspective"}],"extensionsUsed":["S8S_v3d_texture_data","S8S_v3d_material_data","S8S_v3d_camera_data","S8S_v3d_mesh_data","S8S_v3d_node_data","S8S_v3d_animation_data","S8S_v3d_scene_data"],"images":[{"uri":"20210202_185447_953.jpg"},{"uri":"arrow2.png"},{"uri":"v3d_exported_image_screen"}],"materials":[{"extensions":{"S8S_v3d_material_data":{"nodeGraph":{"edges":[{"fromNode":1,"fromOutput":0,"toInput":0,"toNode":0}],"nodes":[{"inputs":[[0,0,0,0],[0,0,0,0],[0.0,0.0,0.0]],"is_active_output":true,"name":"Material Output","outputs":[],"type":"OUTPUT_MATERIAL_BL"},{"inputs":[[0.0,0.0,0.0]],"is_active_output":false,"name":"Image Texture","outputs":[[0.0,0.0,0.0,0.0],0.0],"projection":"FLAT","projectionBlend":0.0,"texture":0,"type":"TEX_IMAGE_BL"}]},"useCastShadows":true}},"name":"Material.002"},{"alphaCutoff":0.5001,"alphaMode":"MASK","extensions":{"S8S_v3d_material_data":{"nodeGraph":{"edges":[{"fromNode":1,"fromOutput":0,"toInput":0,"toNode":3},{"fromNode":3,"fromOutput":0,"toInput":2,"toNode":2},{"fromNode":2,"fromOutput":0,"toInput":0,"toNode":0},{"fromNode":1,"fromOutput":1,"toInput":0,"toNode":2},{"fromNode":4,"fromOutput":0,"toInput":1,"toNode":2}],"nodes":[{"inputs":[[0,0,0,0],[0,0,0,0],[0.0,0.0,0.0]],"is_active_output":true,"name":"Material Output","outputs":[],"type":"OUTPUT_MATERIAL_BL"},{"inputs":[[0.0,0.0,0.0]],"is_active_output":false,"name":"Image Texture","outputs":[[0.0,0.0,0.0,0.0],0.0],"projection":"FLAT","projectionBlend":0.0,"texture":1,"type":"TEX_IMAGE_BL"},{"inputs":[0.49166667461395264,[0,0,0,0],[0,0,0,0]],"is_active_output":false,"name":"Mix Shader","outputs":[[0,0,0,0]],"type":"MIX_SHADER_BL"},{"inputs":[[1.0,1.0,1.0,1.0],0.9999998807907104],"is_active_output":false,"name":"Emission","outputs":[[0,0,0,0]],"type":"EMISSION_BL"},{"inputs":[[1.0,1.0,1.0,1.0]],"is_active_output":false,"name":"Transparent BSDF","outputs":[[0,0,0,0]],"type":"BSDF_TRANSPARENT_BL"}]},"useCastShadows":true}},"name":"Material.003"},{"extensions":{"S8S_v3d_material_data":{"nodeGraph":{"edges":[{"fromNode":1,"fromOutput":0,"toInput":0,"toNode":0}],"nodes":[{"inputs":[[0,0,0,0],[0,0,0,0],[0.0,0.0,0.0]],"is_active_output":true,"name":"Material Output","outputs":[],"type":"OUTPUT_MATERIAL_BL"},{"inputs":[[1.0,0.7909642457962036,0.9083530902862549,1.0],1.0],"is_active_output":false,"name":"Emission","outputs":[[0,0,0,0]],"type":"EMISSION_BL"}]},"useCastShadows":true}},"name":"info_1"},{"extensions":{"S8S_v3d_material_data":{"nodeGraph":{"edges":[{"fromNode":1,"fromOutput":0,"toInput":0,"toNode":0}],"nodes":[{"inputs":[[0,0,0,0],[0,0,0,0],[0.0,0.0,0.0]],"is_active_output":true,"name":"Material Output","outputs":[],"type":"OUTPUT_MATERIAL_BL"},{"inputs":[[0.005291352979838848,0.05027661845088005,0.272140771150589,1.0],1.0],"is_active_output":false,"name":"Emission","outputs":[[0,0,0,0]],"type":"EMISSION_BL"}]},"useCastShadows":true}},"name":"info_2"},{"extensions":{"S8S_v3d_material_data":{"nodeGraph":{"edges":[{"fromNode":0,"fromOutput":0,"toInput":0,"toNode":1}],"nodes":[{"inputs":[[0.0,0.0,0.0,1.0],0.0,[1.0,0.20000000298023224,0.10000000149011612],[0.800000011920929,0.800000011920929,0.800000011920929,1.0],0.0,0.5,0.0,0.5,0.0,0.0,0.0,0.5,0.0,0.029999999329447746,1.4500000476837158,0.0,0.0,[0.0,0.0,0.0,1.0],1.0,[0.0,0.0,0.0],[0.0,0.0,0.0],[0.0,0.0,0.0]],"is_active_output":false,"name":"Principled BSDF","outputs":[[0,0,0,0]],"type":"BSDF_PRINCIPLED_BL"},{"inputs":[[0,0,0,0],[0,0,0,0],[0.0,0.0,0.0]],"is_active_output":true,"name":"Material Output","outputs":[],"type":"OUTPUT_MATERIAL_BL"}]},"useCastShadows":true}},"name":"tv_black"},{"extensions":{"S8S_v3d_material_data":{"nodeGraph":{"edges":[{"fromNode":2,"fromOutput":0,"toInput":0,"toNode":1},{"fromNode":1,"fromOutput":0,"toInput":0,"toNode":0}],"nodes":[{"inputs":[[0,0,0,0],[0,0,0,0],[0.0,0.0,0.0]],"is_active_output":true,"name":"Material Output","outputs":[],"type":"OUTPUT_MATERIAL_BL"},{"inputs":[[1.0,1.0,1.0,1.0],1.0],"is_active_output":false,"name":"Emission","outputs":[[0,0,0,0]],"type":"EMISSION_BL"},{"inputs":[[0.0,0.0,0.0]],"is_active_output":false,"name":"Image Texture","outputs":[[0.0,0.0,0.0,0.0],0.0],"projection":"FLAT","projectionBlend":0.0,"texture":2,"type":"TEX_IMAGE_BL"}]},"useCastShadows":true}},"name":"tv_video"},{"extensions":{"S8S_v3d_material_data":{"nodeGraph":{"edges":[{"fromNode":0,"fromOutput":0,"toInput":0,"toNode":1},{"fromNode":4,"fromOutput":0,"toInput":1,"toNode":2},{"fromNode":3,"fromOutput":0,"toInput":0,"toNode":2},{"fromNode":2,"fromOutput":0,"toInput":0,"toNode":0}],"nodes":[{"inputs":[[0.05087608844041824,0.05087608844041824,0.05087608844041824,1.0],1.0],"is_active_output":false,"name":"Background","outputs":[[0,0,0,0]],"type":"BACKGROUND_BL"},{"inputs":[[0,0,0,0],[0,0,0,0]],"is_active_output":true,"name":"World Output","outputs":[],"type":"OUTPUT_WORLD_BL"},{"blendType":"MIX","inputs":[0.5,[0.5,0.5,0.5,1.0],[0.05126946419477463,0.05126946419477463,0.05126946419477463,1.0]],"is_active_output":false,"name":"Mix","outputs":[[0.0,0.0,0.0,0.0]],"type":"MIX_RGB_BL","useClamp":false},{"inputs":[],"is_active_output":false,"name":"Light Path","outputs":[0.0,0.0,0.0,0.0,0.0,0.0,0.0,0.0,0.0,0.0,0.0,0.0,0.0],"type":"LIGHT_PATH_BL"},{"inputs":[[0.0,0.0,0.0]],"is_active_output":false,"name":"Environment Texture","outputs":[[0.0,0.0,0.0,0.0]],"projection":"EQUIRECTANGULAR","type":"TEX_ENVIRONMENT_NONE_BL"}]},"useCastShadows":true}},"name":"Verge3D_Environment_World"}],"meshes":[{"extensions":{"S8S_v3d_mesh_data":{"colorLayers":{},"uvLayers":{"UVMap":"TEXCOORD_0"}}},"name":"Plane.001","primitives":[{"attributes":{"NORMAL":2,"POSITION":1,"TEXCOORD_0":3},"indices":0,"material":1,"mode":4}]},{"extensions":{"S8S_v3d_mesh_data":{"colorLayers":{},"uvLayers":{"UVMap":"TEXCOORD_0"}}},"name":"Sphere","primitives":[{"attributes":{"NORMAL":6,"POSITION":5,"TEXCOORD_0":7},"indices":4,"material":0,"mode":4}]},{"extensions":{"S8S_v3d_mesh_data":{"colorLayers":{},"uvLayers":{"UVMap":"TEXCOORD_0"}}},"name":"Sphere","primitives":[{"attributes":{"NORMAL":10,"POSITION":9,"TEXCOORD_0":11},"indices":8,"material":2,"mode":4},{"attributes":{"NORMAL":14,"POSITION":13,"TEXCOORD_0":15},"indices":12,"material":3,"mode":4}]},{"extensions":{"S8S_v3d_mesh_data":{"colorLayers":{},"uvLayers":{"UVMap":"TEXCOORD_0"}}},"name":"Cube.001","primitives":[{"attributes":{"NORMAL":18,"POSITION":17,"TEXCOORD_0":19},"indices":16,"material":4,"mode":4},{"attributes":{"NORMAL":22,"POSITION":21,"TEXCOORD_0":23},"indices":20,"material":5,"mode":4}]}],"nodes":[{"camera":0,"children":[2],"extensions":{"S8S_v3d_node_data":{"frustumCulling":true,"groupNames":["Collection 1"],"hidden":false,"renderOrder":0}},"name":"Camera","rotation":[9.179100857181766e-08,-0.38268351554870605,6.54934950716779e-09,0.9238795042037964],"scale":[1.0,0.9999999403953552,0.9999998807907104],"translation":[-0.009999999776482582,0.0,0.009999999776482582]},{"extensions":{"S8S_v3d_node_data":{"frustumCulling":true,"groupNames":[],"hidden":true,"renderOrder":0,"useShadows":true}},"mesh":3,"name":"tv","rotation":[0.0,-0.3826526999473572,-0.0,0.9238922595977783],"translation":[2.3804314136505127,-0.009212905541062355,-2.382899045944214]},{"children":[1],"name":"v3d_Proxy_Node_0_tv","rotation":[-9.179100857181766e-08,0.38268351554870605,-6.54934950716779e-09,0.9238795042037964],"scale":[1.0,1.0,1.0],"translation":[-3.259629011154175e-09,-2.788111075346933e-09,-0.01414213515818119]},{"extensions":{"S8S_v3d_node_data":{"frustumCulling":true,"groupNames":[],"hidden":false,"renderOrder":0,"useShadows":true}},"mesh":2,"name":"letchiki7","scale":[1.8943802118301392,1.8943802118301392,1.8943802118301392],"translation":[4.0931220054626465,-0.1389937400817871,-71.7027587890625]},{"extensions":{"S8S_v3d_node_data":{"frustumCulling":true,"groupNames":[],"hidden":false,"renderOrder":0,"useShadows":true}},"mesh":1,"name":"Sphere","scale":[15.0,15.0,15.0]},{"extensions":{"S8S_v3d_node_data":{"frustumCulling":true,"groupNames":[],"hidden":false,"renderOrder":0,"useShadows":true}},"mesh":2,"name":"vitrinarubega7","scale":[0.8849198222160339,0.8849198222160339,0.8849198222160339],"translation":[22.181367874145508,-12.52738094329834,10.229782104492188]},{"extensions":{"S8S_v3d_node_data":{"frustumCulling":true,"groupNames":[],"hidden":false,"renderOrder":0,"useShadows":true}},"mesh":0,"name":"scene6","rotation":[0.0,0.7033917307853699,-0.0,0.7108024954795837],"scale":[2.5755398273468018,1.1096104383468628,2.5755395889282227],"translation":[-153.91372680664062,-124.87828826904297,48.95329666137695]}],"samplers":[{}],"scene":0,"scenes":[{"extensions":{"S8S_v3d_scene_data":{"aaMethod":"AUTO","iblEnvironmentMode":"PMREM","physicallyCorrectLights":true,"pmremMaxTileSize":256,"postprocessing":[{"edgeGlow":0.0,"edgeStrength":3.0,"edgeThickness":1.0,"hiddenEdgeColor":[0.10000000149011612,0.10000000149011612,0.10000000149011612,1.0],"pulsePeriod":1.0,"renderHiddenEdge":true,"type":"outline","visibleEdgeColor":[1.0,1.0,1.0,1.0]}],"shadowMap":{"esmDistanceScale":1.0,"renderReverseSided":false,"renderSingleSided":true,"type":"PCFPOISSON"},"worldMaterial":6}},"extras":{"animFrameRate":24,"coordSystem":"Z_UP_RIGHT"},"name":"Scene","nodes":[4,6,5,3,0]}],"textures":[{"extensions":{"S8S_v3d_texture_data":{"colorSpace":"srgb"}},"name":"20210202_185447_953.jpg.002","sampler":0,"source":0},{"extensions":{"S8S_v3d_texture_data":{"colorSpace":"srgb"}},"name":"arrow2.png","sampler":0,"source":1},{"extensions":{"S8S_v3d_texture_data":{"colorSpace":"srgb"}},"name":"screen","sampler":0,"source":2}]}
