{"accessors":[{"bufferView":0,"componentType":5121,"count":6,"max":[3],"min":[0],"type":"SCALAR"},{"bufferView":1,"componentType":5126,"count":4,"max":[1.0,0.0,1.0],"min":[-1.0,0.0,-1.0],"type":"VEC3"},{"bufferView":2,"componentType":5126,"count":4,"max":[0.0,1.0,-0.0],"min":[0.0,1.0,-0.0],"type":"VEC3"},{"bufferView":3,"componentType":5126,"count":4,"max":[1.0,0.0,-0.0,1.0],"min":[1.0,0.0,-0.0,1.0],"type":"VEC4"},{"bufferView":4,"componentType":5126,"count":4,"max":[1.0,1.0],"min":[0.0,0.0],"type":"VEC2"},{"bufferView":5,"componentType":5121,"count":6,"max":[3],"min":[0],"type":"SCALAR"},{"bufferView":6,"componentType":5126,"count":4,"max":[1.0,0.0,1.0],"min":[-1.0,0.0,-1.0],"type":"VEC3"},{"bufferView":7,"componentType":5126,"count":4,"max":[0.0,1.0,-0.0],"min":[0.0,1.0,-0.0],"type":"VEC3"},{"bufferView":8,"componentType":5126,"count":4,"max":[1.0,0.0,-0.0,1.0],"min":[1.0,0.0,-0.0,1.0],"type":"VEC4"},{"bufferView":9,"componentType":5126,"count":4,"max":[1.0,1.0],"min":[0.0,0.0],"type":"VEC2"},{"bufferView":10,"componentType":5123,"count":2880,"max":[1983],"min":[0],"type":"SCALAR"},{"bufferView":11,"componentType":5126,"count":1984,"max":[1.000000238418579,1.0,1.0000003576278687],"min":[-0.9999998211860657,-1.0,-1.0],"type":"VEC3"},{"bufferView":12,"componentType":5126,"count":1984,"max":[0.9904382228851318,0.99513840675354,0.9904384016990662],"min":[-0.9904382228851318,-0.99513840675354,-0.9904382824897766],"type":"VEC3"},{"bufferView":13,"componentType":5126,"count":1984,"max":[1.000000238418579,1.0],"min":[0.0,0.0],"type":"VEC2"},{"bufferView":14,"componentType":5123,"count":15264,"max":[2832],"min":[0],"type":"SCALAR"},{"bufferView":15,"componentType":5126,"count":2833,"max":[2.2308948040008545,3.13181734085083,0.3727041184902191],"min":[-2.230875253677368,-1.3283991813659668,-0.3694663941860199],"type":"VEC3"},{"bufferView":16,"componentType":5126,"count":2833,"max":[1.0,1.0,1.0],"min":[-1.0,-1.0,-1.0],"type":"VEC3"},{"bufferView":17,"componentType":5126,"count":2833,"max":[1.000000238418579,1.0],"min":[0.0,0.0],"type":"VEC2"},{"bufferView":18,"componentType":5123,"count":4320,"max":[783],"min":[0],"type":"SCALAR"},{"bufferView":19,"componentType":5126,"count":784,"max":[2.397454023361206,3.297132730484009,0.11407358944416046],"min":[-2.397454023361206,-1.496105432510376,-0.10291005671024323],"type":"VEC3"},{"bufferView":20,"componentType":5126,"count":784,"max":[0.999969482421875,0.9996337890625,0.9803460836410522],"min":[-0.999969482421875,-0.9996337890625,-0.965330958366394],"type":"VEC3"},{"bufferView":21,"componentType":5126,"count":784,"max":[1.0,0.6666666567325592],"min":[8.881784197001252e-16,0.3541666865348816],"type":"VEC2"},{"bufferView":22,"componentType":5121,"count":78,"max":[51],"min":[0],"type":"SCALAR"},{"bufferView":23,"componentType":5126,"count":52,"max":[2.5431108474731445,1.4124140739440918,0.05167142301797867],"min":[-2.5431108474731445,-1.4124140739440918,-0.04607751965522766],"type":"VEC3"},{"bufferView":24,"componentType":5126,"count":52,"max":[1.0,1.0,1.0],"min":[-1.0,-1.0,-1.0],"type":"VEC3"},{"bufferView":25,"componentType":5126,"count":52,"max":[0.875,0.75],"min":[0.125,0.0],"type":"VEC2"},{"bufferView":26,"componentType":5121,"count":6,"max":[3],"min":[0],"type":"SCALAR"},{"bufferView":27,"componentType":5126,"count":4,"max":[2.4064033031463623,1.336488127708435,0.05167142301797867],"min":[-2.4064033031463623,-1.336488127708435,0.051671214401721954],"type":"VEC3"},{"bufferView":28,"componentType":5126,"count":4,"max":[-4.334607339728791e-08,0.0,1.0],"min":[-4.334607339728791e-08,0.0,1.0],"type":"VEC3"},{"bufferView":29,"componentType":5126,"count":4,"max":[1.0002760887145996,1.0002761483192444],"min":[-0.0002760887145996094,-0.0002759695053100586],"type":"VEC2"},{"bufferView":30,"componentType":5126,"count":51,"max":[2.0833333333333335],"min":[0.0],"type":"SCALAR"},{"bufferView":31,"componentType":5126,"count":51,"max":[0.0,0.9998466968536377,-0.0,0.9999944567680359],"min":[0.0,0.0033231345005333424,-0.0,-0.9753997325897217],"type":"VEC4"}],"animations":[{"channels":[{"sampler":0,"target":{"node":2,"path":"rotation"}}],"extensions":{"S8S_v3d_animation_data":{"auto":true,"loop":"PING_PONG","offset":0.0,"repeatCount":1.0,"repeatInfinite":true}},"name":"borodinskoe1","samplers":[{"input":30,"interpolation":"LINEAR","output":31}]}],"asset":{"generator":"Soft8Soft Verge3D for Blender add-on","version":"2.0"},"bufferViews":[{"buffer":0,"byteLength":6,"byteOffset":0,"target":34963},{"buffer":0,"byteLength":48,"byteOffset":8,"target":34962},{"buffer":0,"byteLength":48,"byteOffset":56,"target":34962},{"buffer":0,"byteLength":64,"byteOffset":104,"target":34962},{"buffer":0,"byteLength":32,"byteOffset":168,"target":34962},{"buffer":0,"byteLength":6,"byteOffset":200,"target":34963},{"buffer":0,"byteLength":48,"byteOffset":208,"target":34962},{"buffer":0,"byteLength":48,"byteOffset":256,"target":34962},{"buffer":0,"byteLength":64,"byteOffset":304,"target":34962},{"buffer":0,"byteLength":32,"byteOffset":368,"target":34962},{"buffer":0,"byteLength":5760,"byteOffset":400,"target":34963},{"buffer":0,"byteLength":23808,"byteOffset":6160,"target":34962},{"buffer":0,"byteLength":23808,"byteOffset":29968,"target":34962},{"buffer":0,"byteLength":15872,"byteOffset":53776,"target":34962},{"buffer":0,"byteLength":30528,"byteOffset":69648,"target":34963},{"buffer":0,"byteLength":33996,"byteOffset":100176,"target":34962},{"buffer":0,"byteLength":33996,"byteOffset":134172,"target":34962},{"buffer":0,"byteLength":22664,"byteOffset":168168,"target":34962},{"buffer":0,"byteLength":8640,"byteOffset":190832,"target":34963},{"buffer":0,"byteLength":9408,"byteOffset":199472,"target":34962},{"buffer":0,"byteLength":9408,"byteOffset":208880,"target":34962},{"buffer":0,"byteLength":6272,"byteOffset":218288,"target":34962},{"buffer":0,"byteLength":78,"byteOffset":224560,"target":34963},{"buffer":0,"byteLength":624,"byteOffset":224640,"target":34962},{"buffer":0,"byteLength":624,"byteOffset":225264,"target":34962},{"buffer":0,"byteLength":416,"byteOffset":225888,"target":34962},{"buffer":0,"byteLength":6,"byteOffset":226304,"target":34963},{"buffer":0,"byteLength":48,"byteOffset":226312,"target":34962},{"buffer":0,"byteLength":48,"byteOffset":226360,"target":34962},{"buffer":0,"byteLength":32,"byteOffset":226408,"target":34962},{"buffer":0,"byteLength":204,"byteOffset":226440},{"buffer":0,"byteLength":816,"byteOffset":226644}],"buffers":[{"byteLength":227460,"uri":"scene1.bin"}],"cameras":[{"extensions":{"S8S_v3d_camera_data":{"controls":"ORBIT","enablePan":false,"moveSpeed":1.0,"orbitMaxDistance":1.0,"orbitMaxPolarAngle":3.1415927410125732,"orbitMaxZoom":100.0,"orbitMinDistance":1.0,"orbitMinPolarAngle":1.0423105955123901,"orbitMinZoom":0.009999999776482582,"orbitTarget":[0.0,0.0,-0.0],"rotateSpeed":1.0,"viewportFitInitialAspect":1.7777777777777777,"viewportFitType":"AUTO"}},"name":"Camera","perspective":{"aspectRatio":1.7777777777777777,"yfov":1.1874993173003463,"zfar":100.0,"znear":0.10000000149011612},"type":"perspective"}],"extensions":{"S8S_v3d_data":{"lights":[{"color":[1.0,1.0,1.0],"intensity":1000.0,"name":"Light","profile":"blender","shadow":{"bias":-0.0018,"cameraFar":100,"cameraFov":0,"cameraNear":0.1,"csm":{"maxDistance":1000.0},"enabled":true,"expBias":2.5,"mapSize":1024,"radius":1.0,"slopeScaledBias":2.5},"type":"directional"}]}},"extensionsUsed":["S8S_v3d_texture_data","S8S_v3d_material_data","S8S_v3d_camera_data","S8S_v3d_data","S8S_v3d_mesh_data","S8S_v3d_node_data","S8S_v3d_animation_data","S8S_v3d_scene_data"],"images":[{"uri":"20210202_190044_017.jpg"},{"uri":"arrow2.png"},{"uri":"v3d_exported_image_screen"}],"materials":[{"extensions":{"S8S_v3d_material_data":{"nodeGraph":{"edges":[{"fromNode":1,"fromOutput":0,"toInput":0,"toNode":0}],"nodes":[{"inputs":[[0,0,0,0],[0,0,0,0],[0.0,0.0,0.0]],"is_active_output":true,"name":"Material Output","outputs":[],"type":"OUTPUT_MATERIAL_BL"},{"inputs":[[0.0,0.0,0.0]],"is_active_output":false,"name":"Environment Texture","outputs":[[0.0,0.0,0.0,0.0]],"projection":"EQUIRECTANGULAR","texture":0,"type":"TEX_ENVIRONMENT_BL"}]},"useCastShadows":true}},"name":"Material.001"},{"alphaMode":"BLEND","doubleSided":true,"extensions":{"S8S_v3d_material_data":{"blendMode":{"blendEquation":32774,"dstRGB":771,"srcRGB":1},"depthWrite":false,"nodeGraph":{"edges":[{"fromNode":0,"fromOutput":0,"toInput":1,"toNode":4},{"fromNode":1,"fromOutput":1,"toInput":0,"toNode":4},{"fromNode":1,"fromOutput":0,"toInput":0,"toNode":3},{"fromNode":3,"fromOutput":0,"toInput":2,"toNode":4},{"fromNode":4,"fromOutput":0,"toInput":0,"toNode":2}],"nodes":[{"inputs":[[1.0,1.0,1.0,1.0]],"is_active_output":false,"name":"Transparent BSDF","outputs":[[0,0,0,0]],"type":"BSDF_TRANSPARENT_BL"},{"inputs":[[0.0,0.0,0.0]],"is_active_output":false,"name":"Image Texture","outputs":[[0.0,0.0,0.0,0.0],0.0],"projection":"FLAT","projectionBlend":0.0,"texture":1,"type":"TEX_IMAGE_BL"},{"inputs":[[0,0,0,0],[0,0,0,0],[0.0,0.0,0.0]],"is_active_output":true,"name":"Material Output","outputs":[],"type":"OUTPUT_MATERIAL_BL"},{"inputs":[[1.0,1.0,1.0,1.0],1.0],"is_active_output":false,"name":"Emission","outputs":[[0,0,0,0]],"type":"EMISSION_BL"},{"inputs":[0.5,[0,0,0,0],[0,0,0,0]],"is_active_output":false,"name":"Mix Shader","outputs":[[0,0,0,0]],"type":"MIX_SHADER_BL"}]},"renderSide":"DOUBLE","useCastShadows":true}},"name":"Material.002"},{"extensions":{"S8S_v3d_material_data":{"nodeGraph":{"edges":[{"fromNode":1,"fromOutput":0,"toInput":0,"toNode":0}],"nodes":[{"inputs":[[0,0,0,0],[0,0,0,0],[0.0,0.0,0.0]],"is_active_output":true,"name":"Material Output","outputs":[],"type":"OUTPUT_MATERIAL_BL"},{"inputs":[[1.0,0.7909642457962036,0.9083530902862549,1.0],1.0],"is_active_output":false,"name":"Emission","outputs":[[0,0,0,0]],"type":"EMISSION_BL"}]},"useCastShadows":true}},"name":"info_1"},{"extensions":{"S8S_v3d_material_data":{"nodeGraph":{"edges":[{"fromNode":1,"fromOutput":0,"toInput":0,"toNode":0}],"nodes":[{"inputs":[[0,0,0,0],[0,0,0,0],[0.0,0.0,0.0]],"is_active_output":true,"name":"Material Output","outputs":[],"type":"OUTPUT_MATERIAL_BL"},{"inputs":[[0.005291352979838848,0.05027661845088005,0.272140771150589,1.0],1.0],"is_active_output":false,"name":"Emission","outputs":[[0,0,0,0]],"type":"EMISSION_BL"}]},"useCastShadows":true}},"name":"info_2"},{"extensions":{"S8S_v3d_material_data":{"nodeGraph":{"edges":[{"fromNode":0,"fromOutput":0,"toInput":0,"toNode":1}],"nodes":[{"inputs":[[0.0,0.0,0.0,1.0],0.0,[1.0,0.20000000298023224,0.10000000149011612],[0.800000011920929,0.800000011920929,0.800000011920929,1.0],0.0,0.5,0.0,0.5,0.0,0.0,0.0,0.5,0.0,0.029999999329447746,1.4500000476837158,0.0,0.0,[0.0,0.0,0.0,1.0],1.0,[0.0,0.0,0.0],[0.0,0.0,0.0],[0.0,0.0,0.0]],"is_active_output":false,"name":"Principled BSDF","outputs":[[0,0,0,0]],"type":"BSDF_PRINCIPLED_BL"},{"inputs":[[0,0,0,0],[0,0,0,0],[0.0,0.0,0.0]],"is_active_output":true,"name":"Material Output","outputs":[],"type":"OUTPUT_MATERIAL_BL"}]},"useCastShadows":true}},"name":"tv_black"},{"extensions":{"S8S_v3d_material_data":{"nodeGraph":{"edges":[{"fromNode":2,"fromOutput":0,"toInput":0,"toNode":1},{"fromNode":1,"fromOutput":0,"toInput":0,"toNode":0}],"nodes":[{"inputs":[[0,0,0,0],[0,0,0,0],[0.0,0.0,0.0]],"is_active_output":true,"name":"Material Output","outputs":[],"type":"OUTPUT_MATERIAL_BL"},{"inputs":[[1.0,1.0,1.0,1.0],1.0],"is_active_output":false,"name":"Emission","outputs":[[0,0,0,0]],"type":"EMISSION_BL"},{"inputs":[[0.0,0.0,0.0]],"is_active_output":false,"name":"Image Texture","outputs":[[0.0,0.0,0.0,0.0],0.0],"projection":"FLAT","projectionBlend":0.0,"texture":2,"type":"TEX_IMAGE_BL"}]},"useCastShadows":true}},"name":"tv_video"},{"extensions":{"S8S_v3d_material_data":{"nodeGraph":{"edges":[{"fromNode":1,"fromOutput":0,"toInput":0,"toNode":0}],"nodes":[{"inputs":[[0,0,0,0],[0,0,0,0]],"is_active_output":true,"name":"World Output","outputs":[],"type":"OUTPUT_WORLD_BL"},{"inputs":[[0.05087608844041824,0.05087608844041824,0.05087608844041824,1.0],1.0],"is_active_output":false,"name":"Background","outputs":[[0,0,0,0]],"type":"BACKGROUND_BL"}]},"useCastShadows":true}},"name":"Verge3D_Environment_World"}],"meshes":[{"extensions":{"S8S_v3d_mesh_data":{"colorLayers":{},"uvLayers":{"UVMap":"TEXCOORD_0"}}},"name":"Plane.001","primitives":[{"attributes":{"NORMAL":2,"POSITION":1,"TANGENT":3,"TEXCOORD_0":4},"indices":0,"material":1,"mode":4}]},{"extensions":{"S8S_v3d_mesh_data":{"colorLayers":{},"uvLayers":{"UVMap":"TEXCOORD_0"}}},"name":"Plane.002","primitives":[{"attributes":{"NORMAL":7,"POSITION":6,"TANGENT":8,"TEXCOORD_0":9},"indices":5,"material":1,"mode":4}]},{"extensions":{"S8S_v3d_mesh_data":{"colorLayers":{},"uvLayers":{"UVMap":"TEXCOORD_0"}}},"name":"Sphere","primitives":[{"attributes":{"NORMAL":12,"POSITION":11,"TEXCOORD_0":13},"indices":10,"material":0,"mode":4}]},{"extensions":{"S8S_v3d_mesh_data":{"colorLayers":{},"uvLayers":{"UVMap":"TEXCOORD_0"}}},"name":"Sphere","primitives":[{"attributes":{"NORMAL":16,"POSITION":15,"TEXCOORD_0":17},"indices":14,"material":2,"mode":4},{"attributes":{"NORMAL":20,"POSITION":19,"TEXCOORD_0":21},"indices":18,"material":3,"mode":4}]},{"extensions":{"S8S_v3d_mesh_data":{"colorLayers":{},"uvLayers":{"UVMap":"TEXCOORD_0"}}},"name":"Cube.001","primitives":[{"attributes":{"NORMAL":24,"POSITION":23,"TEXCOORD_0":25},"indices":22,"material":4,"mode":4},{"attributes":{"NORMAL":28,"POSITION":27,"TEXCOORD_0":29},"indices":26,"material":5,"mode":4}]}],"nodes":[{"extensions":{"S8S_v3d_node_data":{"frustumCulling":true,"groupNames":["Collection"],"hidden":true,"renderOrder":0,"useShadows":true}},"mesh":4,"name":"tv","rotation":[0.0,0.9238795638084412,-0.0,0.38268333673477173],"scale":[0.9999999403953552,1.0,0.9999999403953552],"translation":[-1.8651676177978516,0.0,1.811763882637024]},{"children":[0],"name":"v3d_Proxy_Node_0_tv","rotation":[-1.2314416153458296e-07,-0.9238796234130859,5.7958366994625976e-08,0.3826832175254822],"scale":[1.0000001192092896,1.0000001192092896,1.0000001192092896],"translation":[3.725290298461914e-09,-1.1022369683644229e-09,-0.01414213515818119]},{"extensions":{"S8S_v3d_node_data":{"frustumCulling":true,"groupNames":["Collection"],"hidden":false,"renderOrder":0,"useShadows":true}},"mesh":3,"name":"borodinskoe1","scale":[0.31300467252731323,0.31300467252731323,0.31300467252731323],"translation":[-10.881814956665039,-0.31830501556396484,0.2515527606010437]},{"camera":0,"children":[1],"extensions":{"S8S_v3d_node_data":{"frustumCulling":true,"groupNames":["Collection"],"hidden":false,"renderOrder":0}},"name":"Camera","rotation":[1.2314417574543768e-07,0.9238796234130859,-5.7958374100053334e-08,0.3826832175254822],"scale":[1.0000001192092896,1.0,1.0],"translation":[0.009999999776482582,0.0,-0.009999999776482582]},{"extensions":{"S8S_v3d_node_data":{"frustumCulling":true,"groupNames":["Collection"],"hidden":false,"renderOrder":0,"useShadows":true}},"mesh":1,"name":"scene6","rotation":[0.0,-0.728314220905304,-0.0,0.6852433085441589],"translation":[1.0582947731018066,-4.218177318572998,10.433810234069824]},{"extensions":{"S8S_v3d_node_data":{"frustumCulling":true,"groupNames":["Collection"],"hidden":false,"renderOrder":0,"useShadows":true}},"mesh":0,"name":"scene2","translation":[8.098479270935059,-6.106996536254883,7.912264347076416]},{"extensions":{"S8S_v3d_node_data":{"frustumCulling":true,"groupNames":["Collection"],"hidden":false,"renderOrder":0,"useShadows":true}},"mesh":2,"name":"Sphere","scale":[15.0,15.0,15.0]},{"extensions":{"S8S_v3d_node_data":{"frustumCulling":true,"groupNames":["Collection"],"hidden":false,"light":0,"renderOrder":0}},"name":"Light","rotation":[-0.2841663062572479,0.7269423604011536,0.34203389286994934,0.5232754945755005],"scale":[0.9999999403953552,0.9999997615814209,0.9999998807907104],"translation":[4.076245307922363,5.903861999511719,-1.0054539442062378]}],"samplers":[{}],"scene":0,"scenes":[{"extensions":{"S8S_v3d_scene_data":{"aaMethod":"AUTO","iblEnvironmentMode":"PMREM","physicallyCorrectLights":true,"pmremMaxTileSize":512,"postprocessing":[{"edgeGlow":0.0,"edgeStrength":3.0,"edgeThickness":1.0,"hiddenEdgeColor":[0.10000000149011612,0.10000000149011612,0.10000000149011612,1.0],"pulsePeriod":1.0,"renderHiddenEdge":true,"type":"outline","visibleEdgeColor":[1.0,1.0,1.0,1.0]}],"shadowMap":{"esmDistanceScale":1.0,"renderReverseSided":false,"renderSingleSided":true,"type":"PCFPOISSON"},"toneMapping":{"type":"filmicBlender"},"worldMaterial":6}},"extras":{"animFrameRate":24,"coordSystem":"Z_UP_RIGHT"},"name":"Scene","nodes":[7,3,6,5,4,2]}],"textures":[{"extensions":{"S8S_v3d_texture_data":{"colorSpace":"srgb"}},"name":"20210202_190044_017.jpg","sampler":0,"source":0},{"extensions":{"S8S_v3d_texture_data":{"colorSpace":"srgb"}},"name":"arrow2.png","sampler":0,"source":1},{"extensions":{"S8S_v3d_texture_data":{"colorSpace":"srgb"}},"name":"screen","sampler":0,"source":2}]}
